<svg xmlns="http://www.w3.org/2000/svg" xmlns:xlink="http://www.w3.org/1999/xlink" width="24.853" height="17.719" viewBox="0 0 24.853 17.719">
  <defs>
    <linearGradient id="linear-gradient" x1="1.267" y1="0.281" x2="0.254" y2="0.841" gradientUnits="objectBoundingBox">
      <stop offset="0" stop-color="#ff5f00"/>
      <stop offset="1" stop-color="#ff185d"/>
    </linearGradient>
  </defs>
  <g id="g3880" transform="translate(32.612 23.531) rotate(30)">
    <path id="path3857" d="M101.568,61.853a3.913,3.913,0,1,1-3.909-4.088A4,4,0,0,1,101.568,61.853Z" transform="translate(-123.302 -65.065)" fill="url(#linear-gradient)"/>
    <path id="path3859" d="M1.72,115.445l-.687.747.137,1.039,1.127,1.05,1.209-.324C2.843,117.135,2.255,116.184,1.72,115.445Z" transform="translate(-35.876 -113.407)" fill="url(#linear-gradient)"/>
    <g id="g3794" transform="translate(-39.937 -14.066)">
      <g id="g3804" transform="matrix(1, 0.029, -0.029, 1, 0.716, 0)">
        <g id="g3814" transform="translate(0 1.458) rotate(-3.703)">
          <g id="g3775" transform="translate(0 8.097) rotate(-24.582)">
            <g id="layer1" transform="translate(0 0)">
              <path id="path2888" d="M7.091,16.6c-.857-.212-1.191-.679-1.515-2.116a5.679,5.679,0,0,0-.857-2.368,1.419,1.419,0,0,0-1.258-.591,1.219,1.219,0,0,1-1.317-.957,5.168,5.168,0,0,1-.1-2.659,2.408,2.408,0,0,1,.865-1.071,11.99,11.99,0,0,1,1.6-.709A9.926,9.926,0,0,0,6.95,4.872a23.16,23.16,0,0,0,3.5-2.653c.555-.532.579-.567.7-1.017a1.911,1.911,0,0,1,.525-.969A.7.7,0,0,1,12.256,0c.623-.04,1.014.22,1.556,1.034a16.121,16.121,0,0,1,1.912,5.476c.531,3.1.135,6.143-.854,6.556-.38.159-.581.1-1.334-.387a4.957,4.957,0,0,0-.763-.386A15.992,15.992,0,0,0,7.732,10.99c-.619,0-.67.008-.756.131a1.583,1.583,0,0,0,.084,1.235,3.514,3.514,0,0,1,.178.637.912.912,0,0,0,.3.575.728.728,0,0,1,.269.662c-.033.177,0,.248.232.562.29.386.325.552.189.889a.415.415,0,0,0,.09.519c.154.2.138.355-.042.423A2.835,2.835,0,0,1,7.091,16.6ZM12.063,3.691c-.425,1.538-.018,5.321,1.17,6.758C15.241,8.376,14.08,4.279,12.063,3.691ZM1.656,11.344C.458,11.142,0,10.658,0,9.6A1.889,1.889,0,0,1,.318,8.344C.485,8.1.616,8,1.31,7.628c.816-.44,1.051-.528.876-.329a2.667,2.667,0,0,0-.46,1.764,2.8,2.8,0,0,0,.659,2.07l.239.272L2.279,11.4a5.2,5.2,0,0,1-.623-.054Zm-.017-.577A4.687,4.687,0,0,1,1.286,8.9c0-.741-.059-.914-.169-.545a4.406,4.406,0,0,0-.058.767,2.76,2.76,0,0,0,.185,1.171c.159.482.211.578.313.578s.112-.026.082-.1ZM.824,10.2a2.406,2.406,0,0,1-.152-1.15c.021-.5.012-.6-.058-.57-.136.052-.193.291-.192.805a1.905,1.905,0,0,0,.142.827c.326.792.507.854.259.088Z" fill="url(#linear-gradient)"/>
            </g>
          </g>
          <g id="g3784" transform="translate(14.972 0)">
            <g id="g3790">
              <path id="path3792" d="M0,0C6.526,2.191,8.261,10.519,7.4,12.86A16.516,16.516,0,0,0,0,0ZM.1,1.848c3.38.4,7.047,7.086,5.95,10.305A13.17,13.17,0,0,0,.1,1.848Zm.042,1.61c2.613.059,5.455,5.58,4.751,8.271C4.559,8.285,2.517,4.817.142,3.458Z" fill="url(#linear-gradient)"/>
            </g>
          </g>
        </g>
      </g>
    </g>
  </g>
</svg>
